<?xml version="1.0" encoding="UTF-8"?><svg id="RGB" xmlns="http://www.w3.org/2000/svg" viewBox="0 0 1417.32 183.33" width="320px"><path d="m9.11,159.65v-83.78C9.11,60.39,8.2,55.84,0,54.39v-.37h31.87v.37c-8.2,1.46-9.11,6.01-9.11,21.49v96.53h44.62c10.56,0,20.94,0,25.13-16.39h.36v25.5H0v-.37c8.2-1.46,9.11-6.01,9.11-21.49Zm51.91-14.93c8.2-1.46,9.11-6.01,9.11-21.49v-47.35c0-15.48-.91-20.03-9.11-21.49v-.37h31.87v.37c-8.2,1.46-9.11,6.01-9.11,21.49v47.35c0,15.48.91,20.03,9.11,21.49v.36h-31.87v-.36Z"/><path d="m192.33,54.39v-.37h28.96v.37c-9.11,3.09-10.93,8.56-15.84,21.49l-39.71,105.63h-10.93l-40.8-105.63c-4.92-12.93-7.83-18.39-16.57-21.49v-.37h33.88v.37c-7.65,3.09-7.65,8.74-2.73,21.49l34.24,88.7,32.78-88.7c4.74-12.75,4.74-18.39-3.28-21.49Z"/><path d="m234.96,159.65v-83.78c0-15.48-.91-20.03-9.11-21.49v-.37h52.82c28.78,0,48.81,11.29,48.81,36.43,0,18.76-11.47,30.05-29.5,34.42l20.58,34.79c7.1,12.02,10.56,18.21,20.76,21.49v.37h-23.31l-32.42-54.82c-1.64.18-3.28.18-4.92.18h-30.05v32.78c0,15.48.91,20.03,9.11,21.49v.37h-31.87v-.37c8.2-1.46,9.11-6.01,9.11-21.49Zm43.71-41.89c20.03,0,34.79-6.92,34.79-27.32s-14.75-27.32-34.79-27.32h-30.05v54.64h30.05Z"/><path d="m368.28,181.14v.37h-28.96v-.37c9.11-3.09,10.93-8.56,15.85-21.49l40.62-105.63h10.93l39.89,105.63c4.92,12.93,7.83,18.39,16.57,21.49v.37h-33.88v-.37c7.65-3.09,7.47-8.74,2.73-21.49l-7.1-18.94h-52.82l-7.1,18.94c-4.74,12.75-4.74,18.39,3.28,21.49Zm53.18-49.54l-22.95-60.83-22.95,60.83h45.9Z"/><path d="m476.83,159.65v-83.78c0-15.48-.91-20.03-9.1-21.49v-.37h52.82c28.78,0,48.81,11.29,48.81,36.43,0,18.76-11.47,30.05-29.5,34.42l20.58,34.79c7.1,12.02,10.56,18.21,20.76,21.49v.37h-23.31l-32.42-54.82c-1.64.18-3.28.18-4.92.18h-30.05v32.78c0,15.48.91,20.03,9.1,21.49v.37h-31.87v-.37c8.2-1.46,9.1-6.01,9.1-21.49Zm43.71-41.89c20.03,0,34.79-6.92,34.79-27.32s-14.75-27.32-34.79-27.32h-30.05v54.64h30.05Z"/><path d="m592.59,54.39v-.37h31.87v.37c-8.2,1.46-9.1,6.01-9.1,21.49v83.78c0,15.48.91,20.03,9.1,21.49v.37h-31.87v-.37c8.2-1.46,9.1-6.01,9.1-21.49v-83.78c0-15.48-.91-20.03-9.1-21.49Z"/><path d="m657.98,181.14v.37h-28.96v-.37c9.11-3.09,10.93-8.56,15.85-21.49l40.62-105.63h10.93l39.89,105.63c4.92,12.93,7.83,18.39,16.57,21.49v.37h-33.88v-.37c7.65-3.09,7.47-8.74,2.73-21.49l-7.1-18.94h-52.81l-7.1,18.94c-4.74,12.75-4.74,18.39,3.28,21.49Zm53.18-49.54l-22.95-60.83-22.95,60.83h45.9Z"/><path d="m903.7,159.65v-83.78c0-15.48-.91-20.03-9.1-21.49v-.37h31.87v.37c-8.2,1.46-9.1,6.01-9.1,21.49v96.53h44.62c10.56,0,20.95,0,25.14-16.39h.36v25.5h-92.88v-.37c8.2-1.46,9.1-6.01,9.1-21.49Z"/><path d="m1086.74,54.02v25.5h-.37c-4.19-16.39-14.75-16.39-25.13-16.39h-46.44v49.18h33.15c12.38,0,20.03-.91,23.86-11.47h.37v32.05h-.37c-3.82-10.56-11.47-11.47-23.86-11.47h-33.15v51h48.26c10.38,0,20.95,0,25.13-16.39h.37v25.5h-96.53v-.37c8.2-1.46,9.1-6.01,9.1-21.49v-83.78c0-15.48-.91-20.03-9.1-21.49v-.37h94.71Z"/><path d="m1109.07,159.65v-83.78c0-15.48-.91-20.03-9.1-21.49v-.37h31.87v.37c-8.2,1.46-9.1,6.01-9.1,21.49v96.53h44.62c10.56,0,20.95,0,25.14-16.39h.36v25.5h-92.88v-.37c8.2-1.46,9.1-6.01,9.1-21.49Z"/><path d="m1206.51,159.65v-83.78c0-15.48-.91-20.03-9.1-21.49v-.37h31.87v.37c-8.2,1.46-9.1,6.01-9.1,21.49v96.53h44.62c10.56,0,20.95,0,25.14-16.39h.36v25.5h-92.88v-.37c8.2-1.46,9.1-6.01,9.1-21.49Z"/><path d="m1417.32,117.76c0,37.34-25.32,65.57-64.65,65.57s-64.66-28.23-64.66-65.57,25.13-65.57,64.66-65.57,64.65,28.23,64.65,65.57Zm-64.65,56.46c31.14,0,50.63-22.04,50.63-56.46s-19.49-56.46-50.63-56.46-50.63,22.04-50.63,56.46,19.3,56.46,50.63,56.46Z"/><path d="m876.03,167.18c-1.74-1.98-2.66-2.59-3.97-3.68,0,0,1.62-1.08,2.8-2.06,2.61-2.16-.22-6.16-3.19-4.94-.33.14-3.36,1.76-3.36,1.76-3.87-16.04-1.37-21.98-6.62-29.01-3.71-4.97-8.03-10.87-14.25-15.84-1.04-.84-1.97-1.8-2.58-3.02-1.38-2.81-3.45-5.15-5.57-7.42-1.72-1.8-3.76-3.17-5.83-4.49-.23-.16-.57-.25-.68-.6-.07-.2.03-.42.21-.52.82-.48,1.68-1.02,2.62-1.44,2.17-.99,3.96-2.35,5.11-4.5.18-.31.51-.61.82-.81.72-.48,1.46-.91,2.22-1.32,1.59-.88,2.91-2.13,4.06-3.47.99-1.14,1.79-2.54,1.89-4.08.07-1.35.66-2.33,1.4-3.4.77-1.14,1.28-2.46,1.89-3.69h0c.31-2.77.56-5.55-1.1-8.06-.28-.43-.57-.91-.72-1.39-.46-1.37-.82-2.79-1.25-4.16-.1-.33-.2-.63-.36-.91-1.2-1.9-2.86-3.3-4.91-4.23-1.12-.53-2.28-1.03-3.4-1.62-.53-.28-1.07-.59-1.46-1.01-1.12-1.29-2.58-1.77-4.21-1.92-1.41-.16-2.79-.08-4.14.38-1.28.41-2.59.53-3.94.48-1.66-.05-3.32,0-4.96.36-.74.18-1.3.51-1.87,1.04-1.68,1.54-3.17,3.19-4.14,5.27-.25.53-.53,1.04-1.07,1.39-1.05.64-1.81,1.55-2.55,2.46-1.35,1.64-2.15,3.47-2.17,5.6-.03,1.12-.1,2.23-.13,3.37-.03.38,0,.79.08,1.17.57,2.43.79,4.94,1.61,7.32.18.53.06,1.59-.45,1.94-1.15.81-2.28,1.65-3.45,2.39-2.17,1.39-2.13,1.7-4.36.39-3.58-2.11-7.44-3.17-11.66-2.67-1.18.13-2.35.41-3.52.66-.9.2-1.66-.81-2.43-1.42-2.04-1.67-4.37-2.71-6.98-3.22-.57-.13-2.07-.03-1.69-.51,6.75-8.32,10.3-19.55,17.99-30.75h0c.05.05,1.51,1.42,3.93,3.18,1.23.9,3.86,1.4,5.4-1,1.06-1.66,1.31-3.71-.14-5.07-4.97-4.66-6.01-5.54-6.88-6.45-.47-.5-.29-1.09-.93-1.78-.3-.33-.75-.62-1.05-.92s-.21-1-.83-1.5c-.53-.44-1-.14-1.41-.54-.4-.4-.33-1.25-.92-1.71-.63-.49-1.33-.46-1.8-.98-.36-.4.32-1.78-.53-2.74-1.4-1.59-3.39-.9-3.46-.88t0,0c-.12-.12-7.74-7.94-8.91-9.16h0c1.27-1.78,3.15-4.11,4.45-5.83.85-1.09.94-2.23.21-3.29C780.84,5.29,777.1.27,772.58,0c-7.03-.42-16.12,15.45-14.95,26.35.24,2.2.81,4.27,2.07,6.1,1.87,2.72,8.66-4.68,13.2-8.72,0,0,0,0,0,0l9.43,9.09h0c-2.37,4.48,2.2,12.6,2.21,12.62-9.98,10.49-18.64,15.33-24.92,24.8-2.16,3.26-3.99,9.17-4.43,10.63-.07.22-.07.45,0,.67.31,1.1,1.38,4.5,3.05,5.36,4.96,2.54,19.5,11.9,22.08,13.25.66.34.79.94.77,1.68-.28,6.58.62,14.78,1.91,19.15,1.92,6.48,3.56,9.76,3.3,12.92-.47,5.76-1.62,7.81-5.76,15.55,0,0-10.92,7.57-10.15,31.42.01.35.31.63.66.63h86.22c.38,0,.68-.31.66-.68l-.08-2.33c-.14-1.31-.34-2.37,1.2-2.7,2.24-.48,2.44.55,3.18,1.21,1.33,1.16,2.89,1.14,4.34.15,1.24-.88.83-.41,2.22-.23.81.1,1.58-.08,2.35-.84.64-.59.32-1.83,1.24-1.93.8-.09,1.25-.29,1.68-.73.81-.81.71-1.69,1.26-2.28.98-1.03,1.33-3.24.7-3.97m-78.15-126.57h.01c.75.87,4.47,4.61,4.47,4.61,1.67,1.61-.36,3.06-2.16,1.69-1.4-1.07-4.49-3.53-2.31-6.3m-37.78-19.66c.82-9.74,7.67-15.96,9.15-17.39.56-.55,1.45-.7,2.02-.11.63.67,1.22,1.41,1.72,2.19.29.42.24.94-.15,1.36-4.77,5.17-9.19,11.06-12.23,15.42-.57.81-.77,1.62-.51-1.46m21.85,7.85c-2.03-2-6.74-6.32-9.58-9.45-1.25-1.38.66-2.81,1.83-1.66,1.42,1.4,5.52,5.29,9.38,9.3,1.75,1.81.21,3.65-1.63,1.82m-17.13,52.04c-1.65-.61-2.69.3-3.78,1.17-.31.25-.55.57-.83.85-.83.85-1.81.56-2.48-1.11-.9-2.19,3.47-10.97,6.99-14.58,6.3-6.45,14.32-13.45,21.06-19.98,0,0,0,0,0,0,.05.04.49.39.62.5.36.3,1.15.47,1.54.03.82-.93-1.35-1.44-3.5-7.37-.58-1.61-.99-3.33-.79-5.16.21-1.88,2.01-4.94,4.38-6.83.78-.63,1.51.47,1.17,1.19-.65,1.39-.89,1.42-.91,2.27-.01.61.72,1.11,1.36,1,2.56-.47,2.15.54,2.35,1.26.21.72.54.55,1.17.69.95.19-.13,1.59,1.86,2.65,2,1.06-3.07,6.23-3.12,7.89-.15,1.11-.69,2.05-1.42,2.8-8.44,8.7-16.27,19.69-18.99,25.2-2.13,4.34-3.89,8.57-6.68,7.54m20.15,78.7c-2.42-1.46-3.99-2.57-3.85-4.29.1-1.33.7-2.48,1.55-3.11.49-.36,1.6-.81,1.81-.31,1.26,3.01,2.93,9.17.5,7.71m47.97-25.06c.73-1.3,2.74-1.32,3.96-6.01,0,0,9.24,7.92,12.93,10.44,1.05.73,1.7,1.55,2.09,2.76.94,2.94,3.68,8.94,6.16,16.7.41.96.23,1.79-.53,2.54-.82.76-1.61,1.54-2.46,2.28-.99.89-1.58,1.85-1.61,3.27,0,1.77-1.84,3.22-3.65,3.07-1.81-.16-4.57-.71-9.89.6-2.81.7-5.66,2.16-5.77,2.23h0c-.74-1.19-.97-2.71-2.22-3.72,0,0,0,0,0,0,.84-4.03-1.18-7.15-3.25-10.54-.92-1.51-2.1-4.35-2.1-4.35,0,0,2.7-12.77,6.35-19.26m-9.57-12.98c-.2.29-1.15.92-1.17-.4-.05-3.04.66-6.7,1.64-9.69.38-1.16,2.52-1.07,3.17-.65,1.85,1.16-1.84,8.14-3.64,10.74m-10.21-53.71c.56-2.38,1.61-4.46,3.54-5.97,1.5-1.12,2.51-2.56,3.25-4.22.4-.86.95-1.55,1.63-2.11,1.4-1.18,3.12-1.45,4.84-1.28,2.01.16,3.96.34,5.89-.4,1.19-.48,2.45-.27,3.67-.03,1.05.21,1.95.86,1.9,2.14-.08,1.18.42,1.98,1.27,2.67.21.16.37.43.6.56,1.77,1.04,1.67,2.75,1.56,4.44-.03.37-.21.82-.48,1.09-.92.91-1.18,1.98-1.05,3.24.03.38.22.86-.03,1.25-.26.4-.5.53-.97.54-1.26.02-3.06-.72-4.03-1.28-1.32-.77-1.54-2.2-2.83-3-1.24-.75-2.51-1.45-3.73-2.22-1.07-.67-2.06-1.59-3.28-1.78-.42-.07-.82-.05-1.23.09-1.05.34-.92,1.67-.9,2.83h0c.05,1.89-6.57,5.9-8.97,4.81h0c-.79-.29-.79-.83-.63-1.39m-31.4,16.34c-2.7-1.38-.26-2.68,1.35-1.85,1.64.85,3.28,1.72,4.5,3.22,1.53,1.89,1.74,1.07,2.05.21.31-.86.92-1.04,1.68-1.12,3.68-.35,7.18.23,10.56,1.64,1.56.66,2.81,1.75,3.88,3.04.21.25.36.56.57.81.33.35.9.4,1.31.12.35-.23.53-.55.4-1.01-.05-.18-.12-.38-.18-.56-.05-.18-.13-.38-.21-.56h0c.9-.92,6.36-4.93,7.92-5.8h0c.2.15.46.33.73.48.51.27,1.05.33,1.51-.05.44-.36.61-.84.51-1.42-.03-.05-.05-.13-.08-.18-.54-1.09-.18-2.05.43-3.09h0c.49-.03,1.02-.13,1.53-.1,1.74.15,3.06-.63,4.26-1.72,1.43-1.29,2.81-2.61,4.24-3.9.33-.28.72-.53,1.09-.86h.01c1.07.76,1.68,1.77,2.44,2.68.38.46.77.94,1.05,1.45.59,1.14,1.59,1.75,2.74,2.18.87.33,1.74.63,2.61.96.95.36,1.18.68,1,1.64-.21,1.16-.17,2.5-.95,3.46-.16.2-.33.33-.57.42-.24.1-.51.05-.76.05-.41.03-.79.03-1.33.03,0,0,0,0,0,0-.1-.33-.18-.6-.31-.88-.23-.56-.71-.84-1.28-.76-1.17.12-2.04-.43-2.89-1.12-.15-.12-.31-.23-.48-.35-2.51-1.83-2.61-1.85-5.7-1.63-.16,0-.29,0-.41.03-.51.08-1.02.48-.95.86.08.35.29.76.57.96.45.33,1.03.43,1.43.75.05.05.09.1.12.17.06.14.06.25.04.32-.75,1.75-.62,2.05,1.3,2.2,1.2.1,2.41.05,3.61.1.59.03,1.17.12,1.76.28.46.12.69.66.51,1.14-.1.31-.28.58-.41.88-.43,1.09-.84,2.2-1.3,3.32-.16.43-.33.86-.56,1.24-.23.43-.85.56-1.23.28-.64-.48-1.23-1.01-1.89-1.47-.12-.09-.36-.2-.53-.15-.11.03-.2.07-.29.14-.2.15-.32.46-.34.7-.05.35.08.73.12,1.16t0,0c-.94.03-1.5-.38-2.09-.81-.45-.35-.76-.46-1.09.12-.09.16-.14.35-.11.53.13,1.02,1.29,1.57,2.02,2.42h0c-.21.46-.38.94-.64,1.37-.67,1.19-1.84,1.34-2.76.33-.38-.46-.74-.94-.99-1.47-1.05-2.05-2.05-4.13-3.04-6.21-.13-.3-.21-.63-.33-.94-.18-.43-.41-.84-1-.79-.48.05-.69.28-.72,1.01s-.03,1.44,0,2.18c.08,1.98.16,3.95.23,5.93.01.38.01.75,0,1.12,0,.53-.57.88-1.05.66-.72-.33-1.44-.76-2.2-.94-.79-.18-1.2-.59-1.66-1.22-1.77-2.42-3.49-1.13-2.28.35.79.98,1.4,2.05,2.63,2.64,1.56.73,3.04,1.59,4.55,2.46.38.23.72.55,1.02.88.41.44.74.94,1.18,1.37.72.71,1.4.83,2.33.3,1.57-.9,4.38-.83,5.88-.4.4.12.66.48.59.88-.05.38-.28.64-.64.66-.66.03-1.33.03-2-.05-1.79-.15-3.22.64-4.62,1.59-.46.33-.69.79-.69,1.35-.03.86.03,1.72-.03,2.59-.1,2.35-.18,4.71-.41,7.07-.1,1.09-.41,2.2-.85,3.24-.51,1.22-1.38,2.13-2.83,2.51-2.38.6-4.65.4-6.85-.46-2.15-.86-4.27-1.88-6.23-3.07-1.46-.88-2.78-2.06-4.01-3.24-3.48-3.31-3.75-12.08-4.12-14.72-.7-5.04-.29-7.87-4.86-11.83-2.4-2.09-4.7-4.28-7.56-5.78m19.93,80.7c-.15.52-.64.73-1.1.53-.41-.21-.75-.55-1.18-.72-3.29-1.3-3.25-6.02-11.42-13.86-1.1-1.05-.91-2.52-.38-3.93,3.01-8.08,5.75-14.23,6.44-15.91.71-1.72,1.62-2.54,3.4-1.95,8.46,2.75,11.78,3.12,15.41,2.71.99-.12.81,1.37.56,2.05-2.38,6.4-4.05,8.8-9.76,12.44-.59.38-.87,1.01-.64,1.72.25.84.87,1.14,1.68,1.07,2.28-.21,1.15,1.22-1.99,10.41-.59,1.7-.5,3.61-1.03,5.42m32.99,14.78c-.43,0-16.17.15-28.19.22-1.3-.05-1.68-.46-1.55-1.67.1-1.04.46-1.16,1.58-1.2,7.01-.24,23.33-.16,25.92-.12.64,0,1.18.15,1.46.79.25.53.49,1.29.79,1.98,0,0,0,0,0,0m12.4-4.88c-1.53-.02-2.99.18-4.39.94-1.28.66-2.64,1.19-3.97,1.77h0c-.33.14-.73,0-.93-.3-.45-.66-.75-1.42-1.07-2.28-.1-.27,0-.59.25-.7,2.33-.96,6.38-2.39,7.12-2.53.58-.11,1.2-.18,1.79-.1,1.23.18,2.45.4,3.68.68.59.12.77.87.51,1.44-.3.66-.49,1.09-2.99,1.06m6.75,3.73c-.12.95-1.27,1-4.88.94-1.2-.02-1.4-.12-1.27-1.37.03-.31.29-.54.59-.55,1.62-.07,3.14-.16,4.66-.18.74-.03,1.02.4.9,1.17m5.57-8.6c-1.12.72-3.84,2.02-3.84,2.02-.33.17-.72-.03-.77-.38-.07-.46-.12-.98-.1-1.07.12-.57.98-1.68,3.19-2.51.48-.18.92-.08,1.25.25.21.17.7.77.75,1.01.08.37-.14.47-.47.68m-3.13-3.89c-.28-.28-.39-.88-.09-1.21.68-.71,1.01-1.02,1.84-1.55,2.44-1.59,2.88-2.76,2.48-4.2-2.35-8.46-5.86-15.17-7.08-20.08-.75-3.02,2.43-4.24,3.93-.32,5.14,13.44,6.24,15.06,7.12,20.77.17,1.07.79,1.94,1.66,2.64,6.88,5.47,9.35,7.43,6.96,7.71-.77.09,0,2.63-2.49,1.79-.95-.33-.54,1.11-1.63,1.91-1.08.81-2.16-1.93-2.41-.66-.1.52-.12,1.03-.56,1.44-.61.56-1.51.33-1.74-.46-.13-.51-.28-1.04-.31-1.55-.08-2.08-1.49-3.79-2.35-4.69-.88-.92-1.52-1.77-3.18-1.53-.87.12-1.65.51-2.18-.02"/></svg>